<?xml version="1.0" encoding="utf-8"?>
<!-- Generator: Adobe Illustrator 21.0.0, SVG Export Plug-In . SVG Version: 6.00 Build 0)  -->
<svg version="1.1" id="Layer_1" xmlns="http://www.w3.org/2000/svg" xmlns:xlink="http://www.w3.org/1999/xlink" x="0px" y="0px"
	 viewBox="0 0 60 60" style="enable-background:new 0 0 60 60;" xml:space="preserve">
<style type="text/css">
	.st0{fill:#FFFFFF;}
</style>
<path class="st0" d="M30,41.8c-1.8,0-3.3,1.5-3.3,3.3c0,1.8,1.5,3.3,3.3,3.3c1.8,0,3.3-1.5,3.3-3.3C33.3,43.2,31.8,41.8,30,41.8z
	 M28.9,39.5h2.2c0.4,0,0.7-0.3,0.7-0.7l1.3-18.4c0-0.4-0.3-0.7-0.7-0.7h-4.9c-0.4,0-0.7,0.3-0.7,0.7l1.3,18.4
	C28.2,39.2,28.5,39.5,28.9,39.5z M58.1,46.6L35.2,7c-1.1-1.9-3.1-3-5.2-3s-4.1,1.2-5.2,3L1.7,47c-1.1,1.9-1.1,4.2,0,6
	c1.1,1.9,3.1,3,5.2,3H53c0,0,0,0,0,0h0c3.3,0,6-2.7,6-6C59.1,48.8,58.7,47.6,58.1,46.6z M53.1,53.3H6.9c-1.2,0-2.3-0.6-2.9-1.7
	c-0.6-1-0.6-2.3,0-3.3L27.1,8.4c0.6-1,1.7-1.7,2.9-1.7s2.3,0.6,2.9,1.7L55.8,48c0,0,0,0.1,0.1,0.1c0.4,0.6,0.6,1.2,0.6,1.9
	C56.4,51.8,54.9,53.3,53.1,53.3z"/>
</svg>
