<?xml version="1.0" encoding="utf-8"?>
<!-- Generator: Adobe Illustrator 21.0.0, SVG Export Plug-In . SVG Version: 6.00 Build 0)  -->
<svg version="1.1" id="Layer_1" xmlns="http://www.w3.org/2000/svg" xmlns:xlink="http://www.w3.org/1999/xlink" x="0px" y="0px"
	 viewBox="0 0 57.1 83" style="enable-background:new 0 0 57.1 83;" xml:space="preserve">
<g>
	<g>
		<path d="M38.6,59.3L21.7,69L8.8,12.2l20.1,4.2l1.1,5c0.6-0.2,1.3-0.3,2-0.4L29.4,9.5c-0.2-0.9-0.9-1.7-1.8-1.9L8.6,1.7
			c-0.5-0.2-1-0.2-1.4-0.1H7.1l-4,0.9H3.1C1.7,2.8,0.8,4.3,1.1,5.6l16.7,73.7c0.2,0.7,0.6,1.3,1.2,1.7c0.4,0.2,0.9,0.4,1.4,0.4
			c0.1,0,0.2,0,0.2,0l0,0c0.1,0,0.2,0,0.2,0h0.1l0,0l0,0l4-0.9l0,0h0.1h0.1c0.3-0.1,0.6-0.2,0.8-0.4l15.2-11.3
			c0.9-0.6,1.2-1.7,1.1-2.8l-2.8-12.5h-2.1L38.6,59.3z M7.3,3.6c0.1-0.1,0.3-0.2,0.6-0.1l19.1,5.9c0.2,0.1,0.4,0.2,0.4,0.5l1.1,5.2
			L8.4,11L6.9,4.3l0,0c0-0.1,0-0.1,0-0.2C7,3.9,7.1,3.8,7.3,3.6z M20.4,79.4c-0.2,0-0.3,0-0.5-0.1c-0.1-0.1-0.2-0.2-0.3-0.4L3,5.2
			C2.9,4.8,3.1,4.5,3.5,4.4L5,4.1l0,0c0,0.2,0,0.5,0.1,0.6l0,0l16.7,73.7c0.1,0.2,0.2,0.4,0.2,0.6L20.4,79.4z M40.2,66.4
			c0.1,0.2,0,0.5-0.2,0.6L24.7,78.4c-0.1,0.1-0.2,0.1-0.2,0.2h-0.1c-0.2,0.1-0.5-0.1-0.6-0.2c-0.1-0.1-0.1-0.2-0.2-0.2l-1.8-7.8
			l16.9-9.7L40.2,66.4z"/>
		<path d="M32.3,70.4c0.2,0.1,0.2,0.1,0.4,0.1c0.2,0,0.4-0.1,0.6-0.2c0.7-0.5,0.9-1.8,0.6-2.8c-0.2-0.7-0.6-1.3-1.1-1.5
			c-0.3-0.2-0.6-0.1-1,0.1c-0.8,0.5-1,1.8-0.7,2.8C31.4,69.7,31.8,70.3,32.3,70.4z M32.5,67.2c0.1,0.1,0.2,0.3,0.3,0.6l0,0
			c0.2,0.6,0,1.2-0.1,1.4c-0.1-0.1-0.2-0.3-0.3-0.6C32.2,67.9,32.4,67.5,32.5,67.2z"/>
		<path d="M16.3,9.2l5.6,1.5c0.1,0,0.1,0,0.2,0c0.2,0,0.5-0.2,0.6-0.5c0.1-0.3-0.1-0.6-0.4-0.7L16.6,8c-0.3-0.1-0.6,0.1-0.7,0.4
			C15.8,8.8,15.9,9.1,16.3,9.2z"/>
		<path d="M51.5,23H32.3c-2.5,0-4.6,2.1-4.6,4.6v19.2c0,2.5,2.1,4.6,4.6,4.6h19.2c2.5,0,4.6-2.1,4.6-4.6V27.6C56.1,25,54,23,51.5,23
			z M54,46.7c0,1.5-1.1,2.6-2.6,2.6H32.3c-1.5,0-2.6-1.1-2.6-2.6V27.6c0-1.5,1.1-2.6,2.6-2.6h19.2c1.5,0,2.6,1.1,2.6,2.6L54,46.7z"
			/>
	</g>
	<path d="M50.3,36.9c-1.1-1.1-2.8-1.4-4.3-0.9c-0.2-1.1-0.8-2-1.6-2.8c-1.1-1.1-2.7-1.7-4.3-1.7s-3.2,0.6-4.3,1.8
		c-1.1,1.1-1.8,2.7-1.8,4.2c0,0.2,0,0.5,0.1,0.7c-0.5,0.2-0.9,0.3-1.2,0.7c-0.6,0.5-0.8,1.2-0.8,1.9c0,1.5,1.3,2.8,2.9,2.8h12.4
		c2.3,0,4.1-1.8,4.1-4C51.5,38.6,51.1,37.6,50.3,36.9z M35,42.4c-1,0-1.7-0.7-1.7-1.6c0-0.4,0.2-0.8,0.5-1.1
		c0.2-0.2,0.6-0.4,1.1-0.5c0.2,0,0.3-0.1,0.5-0.2c0.1-0.2,0.2-0.3,0.1-0.5c-0.1-0.4-0.2-0.7-0.2-1.1c0-1.3,0.5-2.4,1.5-3.3
		c0.9-0.9,2.2-1.4,3.5-1.4s2.5,0.5,3.5,1.4c0.8,0.8,1.3,1.8,1.4,2.9c0,0.2,0.2,0.4,0.3,0.5c0.2,0.1,0.4,0.1,0.6-0.1
		c1.1-0.7,2.6-0.6,3.6,0.3c0.5,0.5,0.8,1.2,0.8,1.9c0,1.5-1.3,2.8-2.9,2.8H35z"/>
</g>
</svg>
