<?xml version="1.0" encoding="utf-8"?>
<!-- Generator: Adobe Illustrator 21.0.0, SVG Export Plug-In . SVG Version: 6.00 Build 0)  -->
<svg version="1.1" id="Layer_1" xmlns="http://www.w3.org/2000/svg" xmlns:xlink="http://www.w3.org/1999/xlink" x="0px" y="0px"
	 viewBox="0 0 60 60" style="enable-background:new 0 0 60 60;" xml:space="preserve">
<style type="text/css">
	.st0{fill:#FFFFFF;}
</style>
<g>
	<path class="st0" d="M29.8,59c-16,0-29-13-29-29s13-29,29-29c16,0,29,13,29,29S45.8,59,29.8,59z M29.8,4c-14.3,0-26,11.7-26,26
		s11.7,26,26,26c14.3,0,26-11.7,26-26S44.2,4,29.8,4z"/>
</g>
<g>
	<g>
		<path class="st0" d="M43.3,40c0.9,0.9,0.9,2.4,0,3.3c-0.5,0.5-1.1,0.7-1.7,0.7c-0.6,0-1.2-0.2-1.7-0.7l-10-10l-10,10
			c-0.5,0.5-1.1,0.7-1.7,0.7c-0.6,0-1.2-0.2-1.7-0.7c-0.9-0.9-0.9-2.4,0-3.3l10-10l-10-10c-0.9-0.9-0.9-2.4,0-3.3
			c0.9-0.9,2.4-0.9,3.3,0l10,10l10-10c0.9-0.9,2.4-0.9,3.3,0c0.9,0.9,0.9,2.4,0,3.3l-10,10L43.3,40z"/>
	</g>
</g>
</svg>
