<?xml version="1.0" encoding="utf-8"?>
<!-- Generator: Adobe Illustrator 21.0.0, SVG Export Plug-In . SVG Version: 6.00 Build 0)  -->
<svg version="1.1" id="Layer_1" xmlns="http://www.w3.org/2000/svg" xmlns:xlink="http://www.w3.org/1999/xlink" x="0px" y="0px"
	 viewBox="0 0 60 60" style="enable-background:new 0 0 60 60;" xml:space="preserve">
<style type="text/css">
	.st0{fill:#FFFFFF;}
</style>
<path class="st0" d="M48,25.1c-1.6-8.6-9-14.9-18-14.9s-16.4,6.3-18,14.9C5.6,25.6,0.5,30.9,0.5,37.5c0,6.8,5.5,12.3,12.3,12.3h34.4
	c6.8,0,12.3-5.5,12.3-12.3C59.5,31,54.4,25.6,48,25.1z M47.2,46.1H12.8c-4.7,0-8.6-3.9-8.6-8.6s3.9-8.6,8.6-8.6h2.5l0.1-1.7
	c0.7-7.5,6.9-13.2,14.5-13.2s13.8,5.7,14.5,13.2l0.1,1.7h2.5c4.7,0,8.6,3.9,8.6,8.6S51.9,46.1,47.2,46.1z"/>
</svg>
