<?xml version="1.0" encoding="utf-8"?>
<!-- Generator: Adobe Illustrator 21.0.0, SVG Export Plug-In . SVG Version: 6.00 Build 0)  -->
<svg version="1.1" id="Layer_1" xmlns="http://www.w3.org/2000/svg" xmlns:xlink="http://www.w3.org/1999/xlink" x="0px" y="0px"
	 viewBox="0 0 60 60" style="enable-background:new 0 0 60 60;" xml:space="preserve">
<style type="text/css">
	.st0{fill:#FFFFFF;}
</style>
<g>
	<path class="st0" d="M29.8,59c-16,0-29-13-29-29s13-29,29-29c16,0,29,13,29,29S45.8,59,29.8,59z M29.8,4c-14.3,0-26,11.7-26,26
		s11.7,26,26,26c14.3,0,26-11.7,26-26S44.2,4,29.8,4z"/>
</g>
<g>
	<path class="st0" d="M46.8,29.3c0.1-1,0.1-2.1-0.1-3.1c-0.8-7-6.5-12.6-13.6-13.2C32.7,13,32.3,13,31.9,13c-6,0-11.3,3.5-13.7,8.8
		c-5.5,0.4-9.8,5-9.8,10.6C8.4,38.2,13.2,43,19,43h25.6c3.8,0,6.9-3.1,6.9-6.9C51.7,32.9,49.6,30.3,46.8,29.3z M44.7,40.8H19.1
		c-4.6,0-8.4-3.8-8.4-8.4l0,0c0-4.6,3.8-8.4,8.4-8.4c0.2,0,0.4,0,0.7,0.1c1.7-5.1,6.5-8.8,12.2-8.8c0.4,0,0.7,0,1.1,0.1
		c6,0.5,10.9,5.3,11.6,11.3c0.2,1.6,0.1,3.3-0.3,4.8c0.2,0,0.3,0,0.4,0c2.6,0,4.8,2.1,4.8,4.8C49.5,38.6,47.4,40.8,44.7,40.8z"/>
</g>
</svg>
